<svg xmlns="http://www.w3.org/2000/svg" viewBox="0 0 64 64">
  <defs>
    <linearGradient id="sky" x1="0" y1="0" x2="1" y2="1">
      <stop offset="0" stop-color="#142b45"/>
      <stop offset="1" stop-color="#071321"/>
    </linearGradient>
    <linearGradient id="car" x1="0" y1="0" x2="0" y2="1">
      <stop offset="0" stop-color="#93d5ff"/>
      <stop offset="1" stop-color="#3b91e8"/>
    </linearGradient>
  </defs>
  <rect x="1" y="1" width="62" height="62" rx="17" fill="url(#sky)"/>
  <circle cx="48" cy="15" r="5" fill="#ffd166"/>
  <path d="M0 34 16 17l10 11 9-14 20 21v14H0Z" fill="#244768"/>
  <path d="m12 21 4-4 5 5-3-1-2 2-2-2Z" fill="#c7e8ff"/>
  <path d="m31 18 4-4 7 8-4-2-3 2-2-3Z" fill="#c7e8ff"/>
  <path d="M0 45h64v19H0Z" fill="#101b2a"/>
  <path d="M4 56h12m8 0h12m8 0h12m4 0h4" fill="none" stroke="#f6bd60" stroke-linecap="round" stroke-width="1.5" opacity=".8"/>
  <path d="M10 37c1-2 3-3 7-4l5-8c1-2 3-3 6-3h9c3 0 5 1 7 4l5 7c4 1 6 3 6 7v2c0 2-2 3-4 3H13c-3 0-5-2-5-4v-1c0-1 1-2 2-3Z" fill="url(#car)" stroke="#d9f0ff" stroke-linejoin="round" stroke-width="1.5"/>
  <path d="m24 27-4 6h11v-9h-3c-2 0-3 .8-4 3Zm10-3v9h13l-4-6c-1-2-3-3-5-3Z" fill="#e5f5ff" stroke="#4385bd" stroke-linejoin="round" stroke-width="1"/>
  <path d="M32 24v10" stroke="#3974a6" stroke-width="1.5"/>
  <path d="M9 38h3m40 0h3" stroke="#ffe08a" stroke-linecap="round" stroke-width="2.5"/>
  <path d="M18 36h28" stroke="#2877bd" stroke-linecap="round" stroke-width="1" opacity=".7"/>
  <circle cx="20" cy="45" r="5.5" fill="#17283b" stroke="#d9f0ff" stroke-width="1.5"/>
  <circle cx="20" cy="45" r="2.2" fill="#98c9eb"/>
  <circle cx="45" cy="45" r="5.5" fill="#17283b" stroke="#d9f0ff" stroke-width="1.5"/>
  <circle cx="45" cy="45" r="2.2" fill="#98c9eb"/>
  <rect x="1" y="1" width="62" height="62" rx="17" fill="none" stroke="#ffffff" stroke-opacity=".12"/>
</svg>
